<?xml version="1.0" standalone="no"?>
<!DOCTYPE svg PUBLIC "-//W3C//DTD SVG 20010904//EN"
 "http://www.w3.org/TR/2001/REC-SVG-20010904/DTD/svg10.dtd">
<svg version="1.0" xmlns="http://www.w3.org/2000/svg"
 width="512.000000pt" height="512.000000pt" viewBox="0 0 512.000000 512.000000"
 preserveAspectRatio="xMidYMid meet">

<g transform="translate(0.000000,512.000000) scale(0.100000,-0.100000)"
fill="#000000" stroke="none">
<path d="M2800 4629 c-302 -35 -632 -153 -888 -319 l-92 -59 -608 -3 c-598 -3
-608 -3 -654 -25 -66 -30 -133 -96 -165 -162 -23 -47 -28 -69 -28 -136 0 -67
5 -89 28 -136 32 -66 99 -132 165 -162 44 -21 64 -22 360 -25 172 -2 312 -6
310 -10 -2 -4 -23 -45 -47 -92 -57 -111 -123 -282 -152 -397 l-23 -92 -386 -3
-385 -3 -50 -25 c-63 -31 -117 -85 -152 -152 -36 -71 -40 -198 -6 -270 32 -70
94 -131 166 -164 l62 -29 356 -3 356 -3 7 -67 c13 -128 78 -378 131 -505 7
-16 -4 -17 -142 -17 -191 0 -225 -10 -309 -94 -69 -70 -97 -134 -97 -226 0
-92 28 -156 97 -226 95 -94 94 -94 514 -94 l354 0 84 -79 c522 -495 1254 -683
1959 -505 426 108 842 382 1114 735 601 776 584 1849 -40 2611 -335 410 -838
678 -1381 737 -112 13 -349 12 -458 0z m505 -509 c325 -56 611 -205 851 -444
294 -295 446 -644 461 -1061 6 -185 -9 -318 -57 -487 -75 -269 -204 -484 -414
-693 -233 -232 -522 -381 -847 -436 -107 -18 -150 -21 -309 -16 -255 7 -406
43 -630 149 -720 339 -1073 1163 -824 1925 77 237 213 453 397 634 122 119
244 205 402 284 167 82 344 137 510 158 101 13 351 6 460 -13z"/>
<path d="M2815 3824 c-397 -71 -742 -329 -922 -689 -96 -190 -135 -358 -135
-575 0 -109 5 -171 21 -247 109 -527 520 -927 1045 -1018 113 -19 318 -19 429
0 528 92 943 500 1048 1030 19 93 19 377 0 470 -92 467 -432 849 -879 989 -46
14 -122 33 -169 41 -107 19 -331 18 -438 -1z m375 -739 l0 -375 225 0 225 0 0
-150 0 -150 -375 0 -375 0 0 525 0 525 150 0 150 0 0 -375z"/>
</g>
</svg>
