<?xml version="1.0" standalone="no"?>
<!DOCTYPE svg PUBLIC "-//W3C//DTD SVG 20010904//EN"
 "http://www.w3.org/TR/2001/REC-SVG-20010904/DTD/svg10.dtd">
<svg version="1.0" xmlns="http://www.w3.org/2000/svg"
 width="512.000000pt" height="512.000000pt" viewBox="0 0 512.000000 512.000000"
 preserveAspectRatio="xMidYMid meet">
<g transform="translate(0.000000,512.000000) scale(0.100000,-0.100000)" fill="#059669" stroke="none">
<path d="M2437 4710 c-85 -14 -183 -45 -257 -83 -91 -46 -1422 -979 -1494
-1047 -73 -70 -160 -199 -198 -296 -61 -157 -59 -109 -56 -1380 l3 -1160 37
-75 c46 -93 112 -158 206 -202 67 -32 67 -32 255 -35 l187 -4 0 984 c0 664 4
1004 11 1044 6 32 28 97 50 143 70 150 221 274 384 316 89 23 1901 23 1990 0
166 -43 313 -163 384 -316 22 -46 44 -111 50 -143 7 -40 11 -380 11 -1044 l0
-984 188 4 c187 3 187 3 254 35 94 44 160 109 206 202 l37 75 3 1160 c3 1271
5 1223 -56 1380 -39 100 -127 230 -205 302 -84 78 -1399 998 -1496 1046 -42
21 -112 47 -156 58 -92 24 -254 33 -338 20z"/>
<path d="M1594 2586 c-27 -13 -66 -42 -87 -66 -57 -66 -67 -111 -67 -287 l0
-153 1120 0 1120 0 0 153 c0 176 -10 221 -67 287 -21 24 -60 53 -87 66 l-51
24 -915 0 -915 0 -51 -24z"/>
<path d="M1440 1495 l0 -265 1120 0 1120 0 0 265 0 265 -1120 0 -1120 0 0
-265z"/>
<path d="M1440 670 l0 -240 1120 0 1120 0 0 240 0 240 -1120 0 -1120 0 0 -240z"/>
</g>
<g transform="translate(30.000000,512.000000) scale(0.100000,-0.100000)" fill="rgba(0,0,0,0.12)" stroke="none">
<path d="M2437 4710 c-85 -14 -183 -45 -257 -83 -91 -46 -1422 -979 -1494
-1047 -73 -70 -160 -199 -198 -296 -61 -157 -59 -109 -56 -1380 l3 -1160 37
-75 c46 -93 112 -158 206 -202 67 -32 67 -32 255 -35 l187 -4 0 984 c0 664 4
1004 11 1044 6 32 28 97 50 143 70 150 221 274 384 316 89 23 1901 23 1990 0
166 -43 313 -163 384 -316 22 -46 44 -111 50 -143 7 -40 11 -380 11 -1044 l0
-984 188 4 c187 3 187 3 254 35 94 44 160 109 206 202 l37 75 3 1160 c3 1271
5 1223 -56 1380 -39 100 -127 230 -205 302 -84 78 -1399 998 -1496 1046 -42
21 -112 47 -156 58 -92 24 -254 33 -338 20z"/>
<path d="M1594 2586 c-27 -13 -66 -42 -87 -66 -57 -66 -67 -111 -67 -287 l0
-153 1120 0 1120 0 0 153 c0 176 -10 221 -67 287 -21 24 -60 53 -87 66 l-51
24 -915 0 -915 0 -51 -24z"/>
<path d="M1440 1495 l0 -265 1120 0 1120 0 0 265 0 265 -1120 0 -1120 0 0
-265z"/>
<path d="M1440 670 l0 -240 1120 0 1120 0 0 240 0 240 -1120 0 -1120 0 0 -240z"/>
</g>
</svg>
