<?xml version="1.0" standalone="no"?>
<!DOCTYPE svg PUBLIC "-//W3C//DTD SVG 20010904//EN"
 "http://www.w3.org/TR/2001/REC-SVG-20010904/DTD/svg10.dtd">
<svg version="1.0" xmlns="http://www.w3.org/2000/svg"
 width="512.000000pt" height="512.000000pt" viewBox="0 0 512.000000 512.000000"
 preserveAspectRatio="xMidYMid meet">
<g transform="translate(0.000000,512.000000) scale(0.100000,-0.100000)" stroke="none">
<path d="M2335 4784 c-823 -112 -1414 -791 -1370 -1574 34 -612 233 -1193 633
-1845 189 -309 506 -726 707 -931 101 -102 152 -128 255 -128 103 0 154 26
255 128 50 50 141 155 204 231 616 753 1000 1529 1106 2233 80 539 3 909 -264
1271 -335 450 -941 695 -1526 615z m456 -653 c300 -78 547 -293 658 -572 53
-132 65 -199 65 -359 0 -160 -12 -227 -65 -359 -47 -117 -114 -217 -213 -317
-134 -133 -280 -215 -462 -261 -105 -26 -334 -24 -441 4 -352 93 -609 348
-705 702 -28 102 -31 342 -5 445 96 381 389 659 770 732 100 19 299 12 398
-15z" fill="rgba(0,0,0,0.12)" transform="translate(30, -30)"/>
<path d="M2335 4784 c-823 -112 -1414 -791 -1370 -1574 34 -612 233 -1193 633
-1845 189 -309 506 -726 707 -931 101 -102 152 -128 255 -128 103 0 154 26
255 128 50 50 141 155 204 231 616 753 1000 1529 1106 2233 80 539 3 909 -264
1271 -335 450 -941 695 -1526 615z m456 -653 c300 -78 547 -293 658 -572 53
-132 65 -199 65 -359 0 -160 -12 -227 -65 -359 -47 -117 -114 -217 -213 -317
-134 -133 -280 -215 -462 -261 -105 -26 -334 -24 -441 4 -352 93 -609 348
-705 702 -28 102 -31 342 -5 445 96 381 389 659 770 732 100 19 299 12 398
-15z" fill="#059669"/>
<path d="M2421 3825 c-234 -51 -438 -257 -486 -490 -95 -454 306 -855 760
-760 287 60 505 329 505 625 0 405 -382 711 -779 625z" fill="#059669"/>
</g>
</svg>
