<svg xmlns="http://www.w3.org/2000/svg" xmlns:xlink="http://www.w3.org/1999/xlink" width="1080" zoomAndPan="magnify" viewBox="0 0 810 809.999993" height="1080" preserveAspectRatio="xMidYMid meet" version="1.0"><defs><clipPath id="2692d21c21"><path d="M 0 0.0390625 L 810 0.0390625 L 810 304 L 0 304 Z M 0 0.0390625 " clip-rule="nonzero"/></clipPath><clipPath id="9de693cb35"><path d="M 497.152344 465 L 764 465 L 764 604 L 497.152344 604 Z M 497.152344 465 " clip-rule="nonzero"/></clipPath><clipPath id="f6571f9ac3"><rect x="0" width="810" y="0" height="805"/></clipPath></defs><g transform="matrix(1, 0, 0, 1, 0, 5)"><g clip-path="url(#f6571f9ac3)"><g clip-path="url(#2692d21c21)"><path fill="#2564eb" d="M 405 184.488281 L 405 184.335938 L 506.25 141.304688 L 506.25 141.105469 L 657.820312 208.992188 L 810 151.9375 L 405 0.0625 L 0 151.9375 L 405 303.8125 L 556.570312 246.960938 Z M 405 184.488281 " fill-opacity="1" fill-rule="nonzero"/></g><path fill="#2564eb" d="M 0 658.1875 L 379.6875 800.59375 L 379.6875 344.96875 L 0 202.5625 Z M 101.25 567.871094 L 202.5 605.839844 L 202.5 659.859375 L 101.25 621.890625 Z M 101.25 567.871094 " fill-opacity="1" fill-rule="nonzero"/><path fill="#2564eb" d="M 658.125 386.332031 L 556.875 424.300781 L 556.875 297.484375 L 430.3125 344.96875 L 430.3125 800.59375 L 810 658.1875 L 810 202.5625 L 658.125 259.515625 Z M 658.125 386.332031 " fill-opacity="1" fill-rule="nonzero"/><g clip-path="url(#9de693cb35)"><path fill="#ffffff" d="M 762.257812 480.5625 C 752.21875 467.027344 733.941406 461.457031 717.613281 468.132812 L 661.289062 491.171875 L 577.804688 525.324219 C 572.976562 527.296875 565.253906 527.054688 560.566406 524.777344 L 520.226562 505.1875 C 515.53125 502.910156 507.664062 502.230469 502.648438 503.667969 C 502.648438 503.667969 500.996094 504.140625 498.957031 504.722656 C 496.917969 505.308594 496.71875 507.320312 498.492188 509.230469 L 539.703125 553.140625 C 550.40625 564.550781 570.824219 569 585.3125 563.078125 L 640.292969 540.578125 L 623.746094 600.628906 C 623.058594 603.144531 624.445312 604.371094 626.863281 603.378906 L 631.398438 601.539062 C 641.050781 597.589844 653.261719 587.171875 658.710938 578.234375 L 695.351562 518.042969 L 758.132812 492.359375 C 762.957031 490.386719 765.355469 484.757812 762.257812 480.5625 Z M 762.257812 480.5625 " fill-opacity="1" fill-rule="nonzero"/></g><path fill="#ffffff" d="M 617.863281 498.726562 L 656.371094 482.980469 L 626.710938 469.996094 C 616.160156 465.367188 599.707031 464.648438 587.695312 467.964844 C 585.179688 468.652344 584.839844 470.835938 586.835938 472.515625 Z M 617.863281 498.726562 " fill-opacity="1" fill-rule="nonzero"/></g></g></svg>